<svg xmlns="http://www.w3.org/2000/svg" width="61.929" height="59.135" viewBox="0 0 61.929 59.135">
  <g id="グループ_12967" data-name="グループ 12967" transform="translate(-460.588 -16496.361)">
    <path id="パス_23421" data-name="パス 23421" d="M233.356,175.692a1.1,1.1,0,0,1-1.1-1.1V170.76h-1.4a3.919,3.919,0,0,1-3.916-3.914V154.7a3.919,3.919,0,0,1,3.916-3.914h16.093a3.919,3.919,0,0,1,3.916,3.914v12.146a3.919,3.919,0,0,1-3.916,3.914h-8.213l-4.611,4.611a1.1,1.1,0,0,1-.776.321m-2.493-22.712a1.722,1.722,0,0,0-1.72,1.72v12.146a1.722,1.722,0,0,0,1.72,1.72h2.493a1.1,1.1,0,0,1,1.1,1.1v2.282l3.058-3.058a1.1,1.1,0,0,1,.776-.321h8.669a1.723,1.723,0,0,0,1.721-1.72V154.7a1.723,1.723,0,0,0-1.721-1.72Z" transform="translate(251.154 16345.577)" fill="#3e3a39"/>
    <path id="パス_23422" data-name="パス 23422" d="M239.752,158.157h-8.3a1.1,1.1,0,1,1,0-2.194h8.3a1.1,1.1,0,1,1,0,2.194" transform="translate(252.199 16347.162)" fill="#3e3a39"/>
    <path id="パス_23423" data-name="パス 23423" d="M244.271,161.414H231.458a1.1,1.1,0,1,1,0-2.194h12.813a1.1,1.1,0,1,1,0,2.194" transform="translate(252.199 16348.159)" fill="#3e3a39"/>
    <path id="パス_23424" data-name="パス 23424" d="M255.286,178.823a7.25,7.25,0,1,1,7.25-7.25,7.258,7.258,0,0,1-7.25,7.25m0-12.305a5.055,5.055,0,1,0,5.055,5.055,5.06,5.06,0,0,0-5.055-5.055" transform="translate(257.61 16349.722)" fill="#3e3a39"/>
    <path id="パス_23425" data-name="パス 23425" d="M262.329,195.547a1.1,1.1,0,0,1-1.1-1.1V182.47a3.846,3.846,0,0,0-3.841-3.841H253.97a1.1,1.1,0,0,1,0-2.194h3.421a6.043,6.043,0,0,1,6.036,6.036v11.98a1.1,1.1,0,0,1-1.1,1.1" transform="translate(259.09 16353.43)" fill="#3e3a39"/>
    <path id="パス_23426" data-name="パス 23426" d="M257.617,190.725a1.1,1.1,0,0,1-1.1-1.1v-1.68l-3.49,1.27a1.1,1.1,0,0,1-.311.064l-8.432.492a3.146,3.146,0,0,1-.836-6.217l6.606-1.4,2.856-3.5a6.013,6.013,0,0,1,4.676-2.219,1.109,1.109,0,0,1,1.112,1.1,1.086,1.086,0,0,1-1.084,1.1h-.027a3.828,3.828,0,0,0-2.975,1.413l-3.1,3.8a1.093,1.093,0,0,1-.622.379l-6.984,1.482a.955.955,0,0,0-.754.93.951.951,0,0,0,1.006.948l8.272-.482,4.812-1.752a1.1,1.1,0,0,1,1.472,1.032v3.247a1.1,1.1,0,0,1-1.1,1.1" transform="translate(255.443 16353.43)" fill="#3e3a39"/>
    <path id="パス_23427" data-name="パス 23427" d="M222.605,178.823a7.25,7.25,0,1,1,7.25-7.25,7.257,7.257,0,0,1-7.25,7.25m0-12.305a5.055,5.055,0,1,0,5.055,5.055,5.06,5.06,0,0,0-5.055-5.055" transform="translate(247.605 16349.722)" fill="#3e3a39"/>
    <path id="パス_23428" data-name="パス 23428" d="M214.636,195.547a1.1,1.1,0,0,1-1.1-1.1V182.47a6.043,6.043,0,0,1,6.036-6.036H223a1.1,1.1,0,0,1,0,2.194h-3.421a3.846,3.846,0,0,0-3.841,3.841v11.98a1.1,1.1,0,0,1-1.1,1.1" transform="translate(247.049 16353.43)" fill="#3e3a39"/>
    <path id="パス_23429" data-name="パス 23429" d="M221.036,190.725a1.1,1.1,0,0,1-1.1-1.1v-3.247a1.1,1.1,0,0,1,1.472-1.032l4.812,1.752,8.272.482a.949.949,0,0,0,1.006-.948.955.955,0,0,0-.754-.93l-6.984-1.482a1.093,1.093,0,0,1-.622-.379l-3.1-3.8a3.828,3.828,0,0,0-2.975-1.413,1.109,1.109,0,0,1-1.112-1.1,1.086,1.086,0,0,1,1.084-1.1h.027a6.013,6.013,0,0,1,4.676,2.219l2.857,3.5,6.606,1.4a3.146,3.146,0,0,1-.836,6.217l-8.432-.492a1.1,1.1,0,0,1-.311-.064l-3.49-1.27v1.68a1.1,1.1,0,0,1-1.1,1.1" transform="translate(249.008 16353.43)" fill="#3e3a39"/>
    <path id="パス_23430" data-name="パス 23430" d="M237.4,199.54a1.1,1.1,0,0,1,0-2.194l19.478-.059-.01-3.853-3.421-7.384a1.1,1.1,0,0,1,1.992-.922l3.521,7.6a1.106,1.106,0,0,1,.1.457l.014,5.191a1.1,1.1,0,0,1-1.093,1.1l-20.578.061Z" transform="translate(254.018 16355.896)" fill="#3e3a39"/>
    <path id="パス_23431" data-name="パス 23431" d="M252.088,184.3a1.1,1.1,0,0,1-1-.636l-2.731-5.9-11.013.033h0a1.1,1.1,0,0,1,0-2.194l11.717-.035a1.106,1.106,0,0,1,1,.636l3.026,6.536a1.1,1.1,0,0,1-1,1.558" transform="translate(254.001 16353.164)" fill="#3e3a39"/>
    <path id="パス_23432" data-name="パス 23432" d="M221.65,199.622a1.1,1.1,0,0,1-1.1-1.095l-.016-5.191a1.057,1.057,0,0,1,.1-.458l3.563-7.817a1.1,1.1,0,1,1,2,.912l-3.465,7.6.013,3.853,19.48-.056h0a1.1,1.1,0,0,1,0,2.193l-20.577.061Z" transform="translate(249.191 16355.874)" fill="#3e3a39"/>
    <path id="パス_23433" data-name="パス 23433" d="M226.274,183.843a1.082,1.082,0,0,1-.455-.1,1.1,1.1,0,0,1-.543-1.454l2.743-6.017a1.1,1.1,0,0,1,1-.641l11.716-.035h0a1.1,1.1,0,0,1,0,2.194l-11.012.033-2.452,5.377a1.1,1.1,0,0,1-1,.643" transform="translate(250.612 16353.173)" fill="#3e3a39"/>
  </g>
</svg>
